<svg xmlns="http://www.w3.org/2000/svg">
 <!-- лого компанії -->
 <symbol id="logoGreenShop" viewBox="0 0 150 35" fill="none">
  <g clip-path="url(#clip0_1_38)">
    <path d="M17.15 0C7.67748 0 0 7.67746 0 17.15C0 26.0201 6.73548 33.3175 15.3711 34.207C14.8496 29.9134 15.0436 26.4001 15.7067 23.5135C15.3347 21.7225 14.4898 19.0703 12.5734 17.1864C12.5734 17.1864 13.8348 19.0784 14.5181 21.6214C14.5181 21.6255 14.5221 21.6295 14.5221 21.6335C14.5949 21.9044 14.6596 22.1793 14.7162 22.4623C14.7283 22.527 14.7404 22.5917 14.7526 22.6604C14.8051 22.9515 14.8536 23.2426 14.886 23.5418C5.19513 22.3532 3.12921 13.6569 3.35561 10.3781C13.665 10.9482 15.7754 17.8292 16.0827 22.0985C19.4585 11.0412 30.1843 10.4024 31.0697 10.3781C31.4538 18.8763 25.1509 25.5026 17.6149 26.0807C17.6635 25.8503 17.7201 25.6198 17.7767 25.3934C17.7928 25.3247 17.813 25.26 17.8333 25.1913C17.8777 25.0296 17.9222 24.8679 17.9748 24.7061C17.995 24.6374 18.0192 24.5646 18.0394 24.4959C18.096 24.318 18.1567 24.1442 18.2173 23.9663C18.2335 23.9259 18.2456 23.8854 18.2618 23.845C18.3386 23.6348 18.4195 23.4326 18.5003 23.2305C18.5084 23.2143 18.5125 23.1941 18.5205 23.1779C18.5205 23.1779 18.5205 23.1779 18.5246 23.1779C20.4571 18.5043 24.0229 15.4439 24.0229 15.4439C17.0247 19.4868 15.8441 29.9983 15.6582 34.2231C16.1514 34.2676 16.6446 34.2999 17.15 34.2999C26.6225 34.2999 34.3 26.6225 34.3 17.15C34.3 7.67746 26.6225 0 17.15 0Z" fill="#46A358"/>
    <path d="M46.7038 10.7454C48.9719 10.7454 50.8235 11.7198 52.0243 13.4987L49.7764 15.4109C48.9719 14.287 47.9975 13.7048 46.6472 13.7048C44.5691 13.7048 43.2754 15.0713 43.2754 17.1534C43.2754 19.2719 44.6419 20.695 46.8372 20.695C48.0177 20.695 48.9557 20.2826 49.5541 19.5913V19.0091H46.6674V16.2357H52.7763V20.1331C52.1941 21.164 51.3693 21.9888 50.302 22.6235C49.2347 23.242 48.0339 23.5614 46.7038 23.5614C42.9924 23.618 39.9238 20.7314 39.9764 17.1534C39.9198 13.5957 42.9924 10.6888 46.7038 10.7454Z" fill="#46A358"/>
    <path d="M61.9577 23.3315L59.1681 19.4907H57.8379V23.3315H54.6157V10.9683H59.4672C62.2204 10.9683 64.246 12.6542 64.246 15.2214C64.246 16.7375 63.5142 17.9948 62.2973 18.7428L65.5559 23.3315H61.9577ZM57.8339 16.6809H59.4834C60.3809 16.6809 60.9631 16.0987 60.9631 15.2214C60.9631 14.3441 60.3809 13.7781 59.4834 13.7781H57.8339V16.6809Z" fill="#46A358"/>
    <path d="M66.8335 10.9683H75.4126V13.8711H70.0557V15.5772H73.8763V18.2738H70.0557V20.4287H75.639V23.3315H66.8335V10.9683Z" fill="#46A358"/>
    <path d="M77.644 10.9683H86.223V13.8711H80.8662V15.5772H84.6867V18.2738H80.8662V20.4287H86.4494V23.3315H77.644V10.9683Z" fill="#46A358"/>
    <path d="M99.4194 10.9681V23.5577H98.3884L91.6812 17.0567V23.3313H88.459V10.7417H89.4899L96.1971 17.1497V10.9681H99.4194Z" fill="#46A358"/>
    <path d="M103.264 19.1349C103.996 20.1092 104.764 20.7278 106.017 20.7278C106.862 20.7278 107.291 20.4286 107.291 19.8262C107.291 19.2845 107.008 19.1147 106.034 18.6821L104.76 18.1201C102.718 17.2186 101.631 16.0583 101.631 14.3926C101.631 12.2013 103.43 10.7378 105.957 10.7378C107.998 10.7378 109.442 11.7121 110.19 13.2282L108.035 14.8777C107.436 13.9802 106.875 13.5678 105.993 13.5678C105.318 13.5678 104.889 13.8306 104.889 14.3562C104.889 14.805 105.152 15.0516 105.957 15.3669L107.38 15.9653C109.535 16.8668 110.545 17.9503 110.545 19.6928C110.545 22.0903 108.577 23.5538 106.009 23.5538C103.782 23.5538 101.983 22.4865 101.081 20.7804L103.264 19.1349Z" fill="#46A358"/>
    <path d="M112.393 10.9683H115.615V15.4842H120.131V10.9683H123.353V23.3315H120.131V18.387H115.615V23.3315H112.393V10.9683Z" fill="#46A358"/>
    <path d="M131.843 10.7417C135.442 10.6649 138.607 13.6081 138.53 17.1497C138.603 20.7277 135.442 23.6143 131.843 23.5577C128.229 23.6143 125.116 20.7277 125.193 17.1497C125.116 13.6081 128.229 10.6689 131.843 10.7417ZM131.86 13.7011C129.874 13.7011 128.488 15.108 128.488 17.1497C128.488 18.1806 128.807 19.0216 129.426 19.6603C130.044 20.2789 130.869 20.5983 131.86 20.5983C133.772 20.5983 135.231 19.2116 135.231 17.1497C135.235 15.108 133.772 13.7011 131.86 13.7011Z" fill="#46A358"/>
    <path d="M140.374 10.9683H145.225C147.979 10.9683 150.004 12.6542 150.004 15.2214C150.004 17.7523 147.926 19.4907 145.225 19.4907H143.596V23.3315H140.374V10.9683ZM145.242 16.6809C146.139 16.6809 146.721 16.0987 146.721 15.2214C146.721 14.3441 146.139 13.7781 145.242 13.7781H143.592V16.6809H145.242Z" fill="#46A358"/>
  </g>
  <defs>
    <clipPath id="clip0_1_38">
      <rect width="150" height="34.2999" fill="white"/>
    </clipPath>
  </defs>
 </symbol>
 <!-- пошук -->
 <symbol id="vector" width="20" height="20" viewBox="0 0 20 20" fill="none">
  <path d="M14.5726 16.0029C10.5755 19.1865 4.988 18.3056 2.02842 14.6542C-0.828088 11.129 -0.64944 6.04347 2.44943 2.82482C5.65137 -0.500594 10.6854 -0.944524 14.3346 1.78337C15.642 2.76051 16.6183 4.00364 17.2542 5.50838C17.8938 7.02186 18.0881 8.59654 17.8663 10.2205C17.6452 11.837 17 13.2775 15.9499 14.6217C16.0349 14.6773 16.1255 14.7173 16.1904 14.7822C17.3448 15.9311 18.4947 17.0843 19.6491 18.2331C19.9227 18.5054 20.0589 18.8225 19.9776 19.2047C19.8165 19.9651 18.9107 20.2586 18.3298 19.7366C18.0575 19.4925 17.807 19.2234 17.5484 18.9649C16.6002 18.0177 15.6526 17.0699 14.7044 16.1227C14.665 16.0853 14.6238 16.0503 14.5726 16.0029ZM15.9605 8.98677C15.9705 5.12689 12.8529 2.00627 8.98261 2.00065C5.12292 1.99503 2.00781 5.09068 1.99094 8.94806C1.97408 12.8173 5.08544 15.9467 8.96762 15.9648C12.8117 15.9829 15.9505 12.8504 15.9605 8.98677Z" fill="currentColor"/>
 </symbol>
 <!-- пошук -->
 <symbol id="vectorForShop" width="20" height="20" viewBox="0 0 20 20" fill="none">
  <path d="M14.294 16.8721H8.24077C5.65655 16.8721 3.55412 14.7696 3.55412 12.1854V7.3816C3.55412 4.9793 2.35676 2.75568 0.351225 1.43334C-0.00894369 1.19588 -0.108379 0.711439 0.129078 0.35127C0.366535 -0.00893829 0.850939 -0.108412 1.21119 0.129123C2.35606 0.883986 3.28487 1.87959 3.94905 3.02586C4.09258 3.18665 5.24995 4.41338 7.14726 4.41338H16.142C18.596 4.36749 20.5168 6.83021 19.8752 9.19892L18.8397 13.3259C18.3159 15.4138 16.4466 16.8721 14.294 16.8721ZM4.91926 5.53431C5.04912 6.13424 5.11634 6.75284 5.11634 7.3816V12.1854C5.11634 13.9082 6.51796 15.3098 8.24077 15.3098H14.294C15.7291 15.3098 16.9752 14.3377 17.3245 12.9457L18.3599 8.81876C18.7412 7.41128 17.5997 5.94838 16.142 5.9756H7.14722C6.28913 5.9756 5.54224 5.7906 4.91926 5.53431ZM7.85021 19.0201C7.85021 18.4809 7.41307 18.0437 6.87383 18.0437C5.57828 18.0953 5.57942 19.9454 6.87383 19.9965C7.41307 19.9965 7.85021 19.5593 7.85021 19.0201ZM15.6222 19.0201C15.6222 18.4809 15.1851 18.0437 14.6459 18.0437C13.3503 18.0953 13.3514 19.9454 14.6459 19.9965C15.1851 19.9965 15.6222 19.5593 15.6222 19.0201ZM16.9231 8.31893C16.9231 7.88752 16.5734 7.53782 16.142 7.53782H7.45966C6.42329 7.57906 6.42407 9.05914 7.45966 9.10003H16.142C16.5734 9.10003 16.9231 8.75033 16.9231 8.31893Z" fill="currentColor"/>
 </symbol>
 <!-- шоппінг -->
 <symbol id="shopping" width="24" height="24" viewBox="0 0 24 24" fill="none">
  <path d="M17.1558 20.25H9.89066C6.78905 20.25 4.26569 17.7267 4.26569 14.6251V8.85947C4.26569 5.9762 2.82861 3.30739 0.421544 1.72031C-0.0107343 1.43531 -0.130077 0.853876 0.154921 0.421598C0.439919 -0.0107278 1.02131 -0.130118 1.45368 0.154974C2.82776 1.06097 3.94254 2.2559 4.73969 3.63167C4.91195 3.82466 6.30104 5.29699 8.57821 5.29699H19.3738C22.3191 5.24191 24.6245 8.19769 23.8544 11.0406L22.6117 15.9939C21.9829 18.4998 19.7394 20.25 17.1558 20.25ZM5.90415 6.64234C6.06001 7.36238 6.14068 8.10483 6.14068 8.85947V14.6251C6.14068 16.6928 7.82292 18.375 9.89066 18.375H17.1558C18.8782 18.375 20.3739 17.2082 20.793 15.5376L22.0358 10.5844C22.4933 8.89509 21.1233 7.13931 19.3738 7.17198H8.57817C7.54828 7.17198 6.65185 6.94993 5.90415 6.64234ZM9.42191 22.8281C9.42191 22.1809 8.89724 21.6563 8.25004 21.6563C6.69511 21.7182 6.69647 23.9387 8.25004 24C8.89724 24 9.42191 23.4753 9.42191 22.8281ZM18.75 22.8281C18.75 22.1809 18.2253 21.6563 17.5781 21.6563C16.0232 21.7182 16.0245 23.9387 17.5781 24C18.2253 24 18.75 23.4753 18.75 22.8281ZM20.3113 9.98446C20.3113 9.46668 19.8916 9.04697 19.3738 9.04697H8.95316C7.7093 9.09647 7.71023 10.8729 8.95316 10.922H19.3738C19.8916 10.922 20.3113 10.5022 20.3113 9.98446Z" fill="currentColor"/>
 </symbol>
 <!-- для кнопки входу -->
 <symbol id="forLoginButtom" width="18" height="17" viewBox="0 0 18 17" fill="none">
  <path d="M17.0266 8.55925H6.99243" stroke="white" stroke-width="1.5" stroke-linecap="round" stroke-linejoin="round"/>
  <path d="M14.5879 6.12939L17.0279 8.55939L14.5879 10.9894" stroke="white" stroke-width="1.5" stroke-linecap="round" stroke-linejoin="round"/>
  <path d="M12.5007 4.81667C12.2257 1.83333 11.1091 0.75 6.6674 0.75C0.749899 0.75 0.749899 2.675 0.749899 8.45833C0.749899 14.2417 0.749899 16.1667 6.6674 16.1667C11.1091 16.1667 12.2257 15.0833 12.5007 12.1" stroke="white" stroke-width="1.5" stroke-linecap="round" stroke-linejoin="round"/>
 </symbol>
 <!-- серце -->
 <symbol id="heart" width="20" height="20" viewBox="0 0 20 20" fill="none">
  <path fill="currentColor"  d="M10 18.8873C9.71527 18.8873 9.44077 18.7842 9.22684 18.5968C8.41888 17.8903 7.63992 17.2264 6.95267 16.6408L6.94916 16.6377C4.93423 14.9207 3.19427 13.4378 1.98364 11.9771C0.630341 10.3441 0 8.79578 0 7.10434C0 5.46097 0.563507 3.94485 1.58661 2.83508C2.62192 1.71219 4.04251 1.09375 5.58716 1.09375C6.74164 1.09375 7.79892 1.45874 8.72955 2.1785C9.19922 2.54181 9.62494 2.98645 10 3.5051C10.3752 2.98645 10.8008 2.54181 11.2706 2.1785C12.2012 1.45874 13.2585 1.09375 14.413 1.09375C15.9575 1.09375 17.3782 1.71219 18.4135 2.83508C19.4366 3.94485 20 5.46097 20 7.10434C20 8.79578 19.3698 10.3441 18.0165 11.9769C16.8059 13.4378 15.0661 14.9205 13.0515 16.6374C12.363 17.224 11.5828 17.8889 10.773 18.5971C10.5592 18.7842 10.2846 18.8873 10 18.8873ZM5.58716 2.26532C4.37363 2.26532 3.25882 2.74963 2.44781 3.62915C1.62476 4.52194 1.17142 5.75607 1.17142 7.10434C1.17142 8.52692 1.70013 9.79919 2.88559 11.2296C4.03137 12.6122 5.73563 14.0645 7.70889 15.7462L7.71255 15.7492C8.4024 16.3371 9.18442 17.0036 9.99832 17.7153C10.8171 17.0023 11.6003 16.3347 12.2916 15.7458C14.2647 14.0642 15.9688 12.6122 17.1146 11.2296C18.2999 9.79919 18.8286 8.52692 18.8286 7.10434C18.8286 5.75607 18.3752 4.52194 17.5522 3.62915C16.7413 2.74963 15.6264 2.26532 14.413 2.26532C13.524 2.26532 12.7078 2.54791 11.9872 3.10516C11.3449 3.60199 10.8975 4.23004 10.6352 4.66949C10.5003 4.89548 10.2629 5.03036 10 5.03036C9.73709 5.03036 9.49966 4.89548 9.36478 4.66949C9.10263 4.23004 8.65524 3.60199 8.01285 3.10516C7.29218 2.54791 6.47598 2.26532 5.58716 2.26532Z" />
 </symbol>
 <!-- стрілка -->
 <symbol id="arrow" width="7" height="12" viewBox="0 0 7 12" fill="none">
  <path d="M0.75 0.75C0.75 0.75 6 3.858 6 6C6 8.14125 0.75 11.25 0.75 11.25" stroke="#3D3D3D" stroke-width="1.5" stroke-linecap="round" stroke-linejoin="round"/>
 </symbol>
 <!-- локація -->
 <symbol id="location" width="14" height="17" viewBox="0 0 14 17" fill="none">
  <path fill-rule="evenodd" clip-rule="evenodd"
        d="M9.09184 7.17542C9.09184 6.02436 8.15914 5.09166 7.00808 5.09166C5.85787 5.09166 4.92517 6.02436 4.92517 7.17542C4.92517 8.32563 5.85787 9.25833 7.00808 9.25833C8.15914 9.25833 9.09184 8.32563 9.09184 7.17542Z"
        stroke="#46A358" stroke-width="1.5" stroke-linecap="round" stroke-linejoin="round" />
  <path fill-rule="evenodd" clip-rule="evenodd"
        d="M6.99959 15.75C4.58457 15.75 0.75 11.5489 0.75 7.0822C0.75 3.58539 3.54758 0.75 6.99959 0.75C10.4516 0.75 13.25 3.58539 13.25 7.0822C13.25 11.5489 9.41543 15.75 6.99959 15.75Z"
        stroke="#46A358" stroke-width="1.5" stroke-linecap="round" stroke-linejoin="round" />
 </symbol>
<!-- повідомлення -->
 <symbol id="message" width="18" height="17" viewBox="0 0 18 17" fill="none">
  <path d="M13.3274 5.88918C13.3274 5.88918 10.6523 9.0997 8.69578 9.0997C6.74005 9.0997 4.03496 5.88918 4.03496 5.88918"
        stroke="#46A358" stroke-width="1.5" stroke-linecap="round" stroke-linejoin="round" />
  <path fill-rule="evenodd" clip-rule="evenodd"
        d="M0.75 8.34733C0.75 2.64891 2.73413 0.75 8.68651 0.75C14.6389 0.75 16.623 2.64891 16.623 8.34733C16.623 14.0449 14.6389 15.9447 8.68651 15.9447C2.73413 15.9447 0.75 14.0449 0.75 8.34733Z"
        stroke="#46A358" stroke-width="1.5" stroke-linecap="round" stroke-linejoin="round" />
 </symbol>
 <!-- телефон -->
 <symbol id="calling" width="18" height="18" viewBox="0 0 18 18" fill="none">
  <path d="M11.0436 0.750061C14.1277 1.09256 16.5644 3.52589 16.9111 6.61006" stroke="#46A358"
        stroke-width="1.5" stroke-linecap="round" stroke-linejoin="round" />
  <path d="M11.0436 3.70256C12.5194 3.98923 13.6727 5.14339 13.9602 6.61923" stroke="#46A358" stroke-width="1.5"
        stroke-linecap="round" stroke-linejoin="round" />
  <path fill-rule="evenodd" clip-rule="evenodd"
        d="M5.50028 12.0408C-0.248036 6.29182 0.569362 3.65926 1.17533 2.81093C1.25318 2.67382 3.17194 -0.198469 5.2287 1.48669C10.3339 5.69118 3.8708 5.09673 8.15771 9.38437C12.4455 13.6711 11.8501 7.20826 16.0548 12.3124C17.74 14.37 14.8676 16.2886 14.7314 16.3656C13.883 16.9724 11.2495 17.7898 5.50028 12.0408Z"
        stroke="#46A358" stroke-width="1.5" stroke-linecap="round" stroke-linejoin="round" />
 </symbol>
 <!-- соціальні мережі -->
 <!-- facebook -->
 <symbol id="facebook" width="32" height="32" viewBox="0 0 32 32" fill="none">
  <rect x="0.5" y="0.5" width="31" height="31" rx="4.5" stroke="#46A358" stroke-opacity="0.2" />
  <path d="M14 13.3333H12V16H14V24H17.3333V16H19.7333L20 13.3333H17.3333V12.2C17.3333 11.6 17.4667 11.3333 18.0667 11.3333H20V8H17.4667C15.0667 8 14 9.06667 14 11.0667V13.3333Z"
        fill="#46A358" fill-opacity="0.6" />
  </symbol>
 <!-- insta -->
 <symbol id="insta" width="32" height="32" viewBox="0 0 32 32" fill="none">
  <rect x="0.5" y="0.5" width="31" height="31" rx="4.5" stroke="#46A358" stroke-opacity="0.2" />
  <path d="M16 9.46667C18.1333 9.46667 18.4 9.46667 19.2667 9.53333C21.4667 9.6 22.4667 10.6667 22.5333 12.8C22.6 13.6667 22.6 13.8667 22.6 16C22.6 18.1333 22.6 18.4 22.5333 19.2C22.4667 21.3333 21.4 22.4 19.2667 22.4667C18.4 22.5333 18.2 22.5333 16 22.5333C13.8667 22.5333 13.6 22.5333 12.8 22.4667C10.6 22.4 9.6 21.3333 9.53333 19.2C9.46667 18.3333 9.46667 18.1333 9.46667 16C9.46667 13.8667 9.46667 13.6 9.53333 12.8C9.6 10.6667 10.6667 9.6 12.8 9.53333C13.6 9.46667 13.8667 9.46667 16 9.46667ZM16 8C13.8 8 13.5333 8 12.7333 8.06667C9.8 8.2 8.2 9.8 8.06667 12.7333C8 13.5333 8 13.8 8 16C8 18.2 8 18.4667 8.06667 19.2667C8.2 22.2 9.8 23.8 12.7333 23.9333C13.5333 24 13.8 24 16 24C18.2 24 18.4667 24 19.2667 23.9333C22.2 23.8 23.8 22.2 23.9333 19.2667C24 18.4667 24 18.2 24 16C24 13.8 24 13.5333 23.9333 12.7333C23.8 9.8 22.2 8.2 19.2667 8.06667C18.4667 8 18.2 8 16 8ZM16 11.8667C13.7333 11.8667 11.8667 13.7333 11.8667 16C11.8667 18.2667 13.7333 20.1333 16 20.1333C18.2667 20.1333 20.1333 18.2667 20.1333 16C20.1333 13.7333 18.2667 11.8667 16 11.8667ZM16 18.6667C14.5333 18.6667 13.3333 17.4667 13.3333 16C13.3333 14.5333 14.5333 13.3333 16 13.3333C17.4667 13.3333 18.6667 14.5333 18.6667 16C18.6667 17.4667 17.4667 18.6667 16 18.6667ZM20.2667 10.8C19.7333 10.8 19.3333 11.2 19.3333 11.7333C19.3333 12.2667 19.7333 12.6667 20.2667 12.6667C20.8 12.6667 21.2 12.2667 21.2 11.7333C21.2 11.2 20.8 10.8 20.2667 10.8Z"
        fill="#46A358" fill-opacity="0.6" />
 </symbol>
 <!-- X -->
 <symbol id="X" width="32" height="32" viewBox="0 0 32 32" fill="none">
  <rect x="0.5" y="0.5" width="31" height="31" rx="4.5" stroke="#46A358" stroke-opacity="0.2" />
  <!-- спробував змінити на актуальний значок соцмережі X через ChatGpt -->
  <path d="M10 9H12.2L16 13L19.8 9H22L17 14.1L22 21H19.8L16 16.7L12.2 21H10L15 14.9L10 9Z" fill="#46A358"
        fill-opacity="0.6" />
 </symbol>
 <!-- linkD -->
 <symbol id="linkD" width="32" height="32" viewBox="0 0 32 32" fill="none">
  <rect x="0.5" y="0.5" width="31" height="31" rx="4.5" stroke="#46A358" stroke-opacity="0.2" />
  <path d="M11.3333 9.66667C11.3333 10.6 10.6 11.3333 9.66667 11.3333C8.73333 11.3333 8 10.6 8 9.66667C8 8.73333 8.73333 8 9.66667 8C10.6 8 11.3333 8.73333 11.3333 9.66667ZM11.3333 12.6667H8V23.3333H11.3333V12.6667ZM16.6667 12.6667H13.3333V23.3333H16.6667V17.7333C16.6667 14.6 20.6667 14.3333 20.6667 17.7333V23.3333H24V16.6C24 11.3333 18.0667 11.5333 16.6667 14.1333V12.6667Z"
        fill="#46A358" fill-opacity="0.6" />
 </symbol>
 <!-- YT -->
 <symbol id="YT" width="32" height="32" viewBox="0 0 32 32" fill="none">
  <rect x="0.5" y="0.5" width="31" height="31" rx="4.5" stroke="#46A358" stroke-opacity="0.2" />
  <path fill-rule="evenodd" clip-rule="evenodd"
        d="M22.1653 13.4299L22.168 13.4306C22.168 13.4306 22.1676 13.4305 22.1667 13.4303C22.1663 13.4302 22.1658 13.4301 22.1653 13.4299ZM11.3244 13.3569C13.9176 13.1957 18.7483 13.1957 21.3415 13.3569L21.3422 13.3644C21.4047 13.9972 21.4299 14.8414 21.4299 16.0192C21.4299 17.1824 21.4053 18.0269 21.3441 18.665C18.6962 18.7703 13.9713 18.7703 11.3228 18.665C11.261 18.0332 11.236 17.1914 11.236 16.0192C11.236 14.8414 11.2612 13.9972 11.3237 13.3644L11.3244 13.3569ZM22.2422 18.6111C22.2422 18.6111 22.2405 18.6115 22.237 18.6122L22.2422 18.6111ZM10.4979 18.6077L10.5006 18.6084C10.4988 18.6079 10.4979 18.6077 10.4979 18.6077ZM7 16.0192C7 20.8412 7.38887 22.63 10.4221 22.8633C13.222 23.0189 19.4439 23.0189 22.2438 22.8633C25.277 22.7078 25.6659 20.8412 25.6659 16.0192C25.6659 11.1971 25.277 9.40832 22.2438 9.17499C19.4439 8.94167 13.222 8.94167 10.4221 9.17499C7.38887 9.40832 7 11.1971 7 16.0192ZM10.4979 13.4306C10.4979 13.4306 10.4988 13.4304 10.5007 13.4299L10.4979 13.4306ZM16.7823 17.7389C15.5039 18.3781 13.9997 17.4484 13.9997 16.0192C13.9997 14.5899 15.5039 13.6602 16.7823 14.2994C18.1994 15.008 18.1994 17.0303 16.7823 17.7389Z"
        fill="#46A358" fill-opacity="0.6" />
 </symbol>
 <!-- стрілка вправо -->
 <symbol id="arrow-right" width="13" height="11" viewBox="0 0 13 11" fill="none">
  <path d="M12 5.26852L0.75 5.26852" stroke="white" stroke-width="1.5" stroke-linecap="round" stroke-linejoin="round"/>
  <path d="M7.46227 0.750145C7.46227 0.750145 11.9998 3.1959 11.9998 5.2674C11.9998 7.3404 7.46227 9.7869 7.46227 9.7869" stroke="white" stroke-width="1.5" stroke-linecap="round" stroke-linejoin="round"/>
 </symbol>

</svg>